<svg width="29" height="26" viewBox="0 0 29 26" fill="none" xmlns="http://www.w3.org/2000/svg">
<path d="M28.0547 13.0029C28.0547 11.1432 25.7273 9.38075 22.1589 8.28782C22.9824 4.64855 22.6164 1.75315 21.0038 0.826161C20.6321 0.60872 20.1975 0.505722 19.7229 0.505722V1.78176C19.9859 1.78176 20.1975 1.83326 20.3748 1.93053C21.1525 2.37686 21.4899 4.07633 21.2268 6.26219C21.1639 6.80007 21.061 7.36656 20.9352 7.9445C19.8144 7.66983 18.5906 7.45811 17.304 7.32078C16.532 6.26219 15.7314 5.30087 14.9251 4.45972C16.7893 2.72591 18.5392 1.77604 19.7286 1.77604V0.5C18.156 0.5 16.0974 1.62154 14.0159 3.56706C11.9344 1.63298 9.87574 0.522889 8.30317 0.522889V1.79892C9.48689 1.79892 11.2424 2.74308 13.1067 4.46544C12.3061 5.30659 11.5055 6.26219 10.7449 7.32078C9.45258 7.45811 8.22883 7.66983 7.10802 7.95022C6.97649 7.378 6.87928 6.82296 6.81066 6.2908C6.54189 4.10494 6.87356 2.40547 7.64555 1.95342C7.8171 1.85042 8.04012 1.80465 8.30317 1.80465V0.528611C7.82282 0.528611 7.38822 0.631609 7.0108 0.84905C5.40392 1.77604 5.04366 4.66571 5.87284 8.29355C2.31597 9.39219 0 11.1489 0 13.0029C0 14.8626 2.3274 16.625 5.89571 17.7179C5.07225 21.3572 5.43823 24.2526 7.05083 25.1796C7.42253 25.397 7.85713 25.5 8.33748 25.5C9.91005 25.5 11.9687 24.3785 14.0502 22.4329C16.1317 24.367 18.1904 25.4771 19.7629 25.4771C20.2433 25.4771 20.6779 25.3741 21.0553 25.1567C22.6622 24.2297 23.0224 21.34 22.1933 17.7122C25.7387 16.6192 28.0547 14.8568 28.0547 13.0029ZM20.6092 9.1862C20.3977 9.92435 20.1346 10.6854 19.8373 11.4464C19.6028 10.9887 19.3569 10.5309 19.0881 10.0731C18.8251 9.61536 18.5449 9.16903 18.2647 8.73415C19.0767 8.85431 19.8601 9.00309 20.6092 9.1862ZM17.9902 15.2803C17.5442 16.0528 17.0867 16.7852 16.6121 17.4661C15.76 17.5405 14.8965 17.5806 14.0273 17.5806C13.1638 17.5806 12.3004 17.5405 11.454 17.4718C10.9794 16.7909 10.5162 16.0642 10.0702 15.2974C9.63557 14.5478 9.241 13.7868 8.88073 13.02C9.23528 12.2533 9.63557 11.4865 10.0645 10.7369C10.5105 9.96441 10.968 9.23197 11.4426 8.55104C12.2946 8.47665 13.1581 8.4366 14.0273 8.4366C14.8908 8.4366 15.7543 8.47665 16.6006 8.54532C17.0753 9.22625 17.5385 9.95296 17.9845 10.7197C18.4191 11.4693 18.8137 12.2304 19.1739 12.9971C18.8137 13.7639 18.4191 14.5307 17.9902 15.2803ZM19.8373 14.5364C20.1461 15.3032 20.4091 16.0699 20.6264 16.8138C19.8773 16.9969 19.0881 17.1514 18.2704 17.2716C18.5506 16.831 18.8308 16.3789 19.0939 15.9154C19.3569 15.4577 19.6028 14.9942 19.8373 14.5364ZM14.0388 20.6419C13.507 20.0926 12.9751 19.4803 12.449 18.8108C12.9637 18.8337 13.4898 18.8509 14.0216 18.8509C14.5591 18.8509 15.091 18.8394 15.6113 18.8108C15.0967 19.4803 14.5649 20.0926 14.0388 20.6419ZM9.78425 17.2716C8.97223 17.1514 8.1888 17.0026 7.43969 16.8195C7.65127 16.0814 7.91432 15.3203 8.21168 14.5593C8.44613 15.0171 8.69203 15.4748 8.96079 15.9326C9.22956 16.3904 9.50404 16.8367 9.78425 17.2716ZM14.0102 5.36381C14.542 5.91314 15.0738 6.52541 15.5999 7.1949C15.0852 7.17201 14.5591 7.15484 14.0273 7.15484C13.4898 7.15484 12.958 7.16629 12.4376 7.1949C12.9523 6.52541 13.4841 5.91314 14.0102 5.36381ZM9.77853 8.73415C9.49833 9.17475 9.21812 9.6268 8.95507 10.0903C8.69203 10.5481 8.44613 11.0058 8.21168 11.4636C7.90288 10.6968 7.63983 9.93008 7.42253 9.1862C8.17165 9.00881 8.96079 8.85431 9.77853 8.73415ZM4.60334 15.8983C2.57902 15.0342 1.26949 13.9012 1.26949 13.0029C1.26949 12.1045 2.57902 10.9658 4.60334 10.1075C5.09513 9.89574 5.63266 9.70691 6.18735 9.52953C6.5133 10.6511 6.94218 11.8184 7.474 13.0143C6.9479 14.2045 6.52474 15.3661 6.20451 16.4819C5.63838 16.3045 5.10085 16.11 4.60334 15.8983ZM7.67986 24.0752C6.90216 23.6289 6.56477 21.9294 6.82782 19.7435C6.89072 19.2057 6.99365 18.6392 7.11946 18.0612C8.24027 18.3359 9.46402 18.5476 10.7507 18.6849C11.5227 19.7435 12.3232 20.7049 13.1295 21.546C11.2653 23.2798 9.51548 24.2297 8.32605 24.2297C8.06872 24.224 7.85142 24.1725 7.67986 24.0752ZM21.244 19.7149C21.5128 21.9008 21.1811 23.6003 20.4091 24.0523C20.2376 24.1553 20.0145 24.2011 19.7515 24.2011C18.5678 24.2011 16.8122 23.2569 14.948 21.5346C15.7486 20.6934 16.5492 19.7378 17.3097 18.6792C18.6021 18.5419 19.8258 18.3302 20.9466 18.0498C21.0782 18.6277 21.1811 19.1828 21.244 19.7149ZM23.4456 15.8983C22.9538 16.11 22.4163 16.2988 21.8616 16.4762C21.5356 15.3547 21.1068 14.1873 20.5749 12.9914C21.101 11.8012 21.5242 10.6396 21.8444 9.5238C22.4106 9.70119 22.9481 9.89574 23.4513 10.1075C25.4756 10.9715 26.7852 12.1045 26.7852 13.0029C26.7794 13.9012 25.4699 15.0399 23.4456 15.8983Z" fill="white"/>
<path d="M14.0217 15.6178C15.465 15.6178 16.635 14.4471 16.635 13.0028C16.635 11.5586 15.465 10.3878 14.0217 10.3878C12.5784 10.3878 11.4084 11.5586 11.4084 13.0028C11.4084 14.4471 12.5784 15.6178 14.0217 15.6178Z" fill="white"/>
</svg>
